<svg xmlns="http://www.w3.org/2000/svg" viewBox="0 0 256 256" fill="none">
  <defs>
    <linearGradient id="a" x1="24" x2="232" y1="24" y2="232" gradientUnits="userSpaceOnUse">
      <stop stop-color="#38bdf8" />
      <stop offset="1" stop-color="#34d399" />
    </linearGradient>
  </defs>
  <rect width="256" height="256" rx="64" fill="#020617" />
  <path
    fill="url(#a)"
    d="M133.6 38.5 64.8 51.3c-3.4.7-5.8 3.9-5.3 7.4l16.8 132.7c.5 3.8 4.2 6.3 7.9 5.3l39.6-10.1c2.2-.6 4.6-.1 6.4 1.2l17.1 12.4c2.1 1.5 5 1.5 7 0l17.1-12.4c1.8-1.3 4.2-1.8 6.4-1.2l39.6 10.1c3.7 1 7.4-1.5 7.9-5.3L197.8 58.7c.5-3.5-1.9-6.7-5.3-7.4l-59-12.8c-.6-.1-1.2-.1-1.8 0Z"
  />
</svg>
